# xmcd
#
# Track frame offsets: 
#        150
#        14209
#        34053
#        54394
#        71560
#        90000
#        105564
#        124895
#        141565
#        158892
#
# Disc length: 2327 seconds
#
# Revision: 0
# Processed by: cddbd v1.5.2PL0 Copyright (c) Steve Scherf et al.
# Submitted via: ExactAudioCopy v0.99pb5
#
DISCID=8609150a
DTITLE=Dion - New York Is My Home
DYEAR=2016
DGENRE=Blues
TTITLE0=Aces Up Your Sleeve
TTITLE1=Can't Go Back To Memphis
TTITLE2=New York Is My Home (Feat. Paul Simon)
TTITLE3=The Apollo King
TTITLE4=Katie Mae
TTITLE5=I'm Your Gangster Of Love
TTITLE6=Ride With You
TTITLE7=I'm All Rocked Up
TTITLE8=Visionary Heart
TTITLE9=I Ain't For It
EXTD=
EXTT0=
EXTT1=
EXTT2=
EXTT3=
EXTT4=
EXTT5=
EXTT6=
EXTT7=
EXTT8=
EXTT9=
PLAYORDER=
